<svg width="24" height="24" viewBox="0 0 24 24" fill="none" xmlns="http://www.w3.org/2000/svg">
<path d="M21.5041 20.0642C21.5041 20.1602 21.4561 20.2082 21.4081 20.3042C20.6881 21.3122 16.8001 22.1282 12.0961 22.1282C7.39215 22.1282 3.45615 21.3602 2.78415 20.3042C2.73615 20.2562 2.68815 20.1602 2.68815 20.0642C2.25615 18.8162 3.21615 17.6162 3.21615 17.6162C3.21615 17.6162 4.56015 18.2402 5.13615 18.4802C8.88015 17.5682 15.3121 17.5682 19.1041 18.4802C19.6801 18.1922 21.0241 17.6162 21.0241 17.6162C21.0241 17.6162 21.9361 18.8642 21.5041 20.0642Z" fill="#0092E4"/>
<path opacity="0.1" d="M19.0079 18.5279C18.6719 18.4319 18.3359 18.3839 17.9519 18.2879C18.1919 18.5279 18.4319 18.7199 18.6239 19.0079C18.8639 19.3919 19.0079 19.8719 18.9599 20.3519C18.9119 20.5439 18.8639 20.7839 18.7679 20.9759C18.6719 21.1679 18.5759 21.3599 18.4799 21.5039C20.0159 21.1679 21.0719 20.7359 21.4079 20.2559C21.4559 20.1599 21.5039 20.1119 21.5039 20.0159C21.9359 18.7679 20.9759 17.5679 20.9759 17.5679C20.9759 17.5679 19.6319 18.2879 19.0079 18.5279Z" fill="#0092E4"/>
<path opacity="0.15" d="M5.08845 18.5279C5.42445 18.4319 5.76045 18.3839 6.14445 18.2879C5.90445 18.5279 5.66445 18.7199 5.47245 19.0079C5.23245 19.3919 5.08845 19.8719 5.13645 20.3519C5.18445 20.5439 5.23245 20.7839 5.32845 20.9759C5.42445 21.1679 5.52045 21.3599 5.61645 21.5039C4.08045 21.1679 3.02445 20.7359 2.68845 20.2559C2.64045 20.1599 2.59245 20.1119 2.59245 20.0159C2.16045 18.7679 3.12045 17.5679 3.12045 17.5679C3.12045 17.5679 4.51245 18.2879 5.08845 18.5279Z" fill="#0092E4"/>
<path d="M21.0722 17.9519C21.0722 19.1039 17.0402 20.0159 12.0482 20.0159C7.05618 20.0159 3.02417 19.1039 3.02417 17.9519C3.07217 15.2159 21.0722 15.2159 21.0722 17.9519Z" fill="#0092E4"/>
<path d="M22.2238 9.31219C22.2238 12.0002 21.6958 14.9762 20.7838 17.7121C20.7358 18.8161 16.8478 19.6801 12.0478 19.6801C7.24783 19.6801 3.35983 18.8161 3.31183 17.7121C2.39983 14.9762 1.87183 12.0002 1.87183 9.31219C1.87183 8.54419 1.91983 7.82419 1.96783 7.10419H3.83983C4.22383 9.88819 5.61583 11.9522 7.24783 11.9522C9.16783 11.9522 10.7518 9.02419 10.7518 5.42419V4.99219H13.2958C13.1998 7.72819 14.3038 11.9522 16.7998 11.9522C18.4318 11.9522 19.7758 9.88819 20.2078 7.10419H22.0798C22.1758 7.77619 22.2238 8.54419 22.2238 9.31219Z" fill="#0092E4"/>
<path d="M12.0962 4.94385H10.8002V5.37585C10.8002 8.97585 9.21617 11.9038 7.29617 11.9038C5.66417 11.9038 4.32017 9.83985 3.88817 7.05585H2.01617C1.92017 7.77585 1.92017 8.54385 1.92017 9.26385C1.92017 11.9518 2.44817 14.9278 3.36017 17.6639C3.40817 18.7679 7.29617 19.6319 12.0962 19.6319H12.1442V4.94385H12.0962Z" fill="#0092E4"/>
<path d="M10.8002 5.75977V6.14377C10.8002 9.74377 9.21617 12.6718 7.29617 12.6718C5.66417 12.6718 4.32017 10.6078 3.88817 7.82377H2.01617C1.96817 8.44777 1.92017 9.07177 1.92017 9.64777V9.26377C1.92017 8.49577 1.96817 7.77577 2.01617 7.05577H3.88817C4.27217 9.83977 5.66417 11.9038 7.29617 11.9038C9.16817 11.9038 10.7042 9.16777 10.8002 5.75977Z" fill="#0092E4"/>
<path d="M10.8 5.37585V4.94385H13.3441V5.71185H10.8V5.37585Z" fill="#0092E4"/>
<path d="M22.2243 9.31177V9.69577C22.2243 9.07177 22.1763 8.44777 22.1283 7.87177H20.2563C19.8723 10.6558 18.4803 12.7198 16.8483 12.7198C14.3044 12.7198 13.2484 8.44777 13.3444 5.75977C13.5844 13.1998 19.2483 14.2558 20.2563 7.10377H22.0803C22.1763 7.77577 22.2243 8.54377 22.2243 9.31177Z" fill="#0092E4"/>
<path opacity="0.1" d="M22.0804 7.05615H20.2084C19.8724 9.55215 18.7204 11.4242 17.3764 11.8082L16.4644 19.3442C19.0084 19.0082 20.7364 18.3842 20.7844 17.6642C21.6964 14.9282 22.2244 11.9522 22.2244 9.26415C22.2244 8.54415 22.1764 7.77615 22.0804 7.05615Z" fill="#0092E4"/>
<path opacity="0.15" d="M2.01583 7.05615H3.88783C4.22383 9.55215 5.37583 11.4242 6.71983 11.8082L7.63183 19.3442C5.08783 19.0082 3.35983 18.3842 3.31183 17.6642C2.39983 14.9282 1.87183 11.9522 1.87183 9.26415C1.87183 8.54415 1.91983 7.77615 2.01583 7.05615Z" fill="#0092E4"/>
<path d="M21.1679 8.88025C22.3343 8.88025 23.2799 7.93468 23.2799 6.76825C23.2799 5.60184 22.3343 4.65625 21.1679 4.65625C20.0015 4.65625 19.0559 5.60184 19.0559 6.76825C19.0559 7.93468 20.0015 8.88025 21.1679 8.88025Z" fill="#0092E4"/>
<path opacity="0.2" d="M21.024 8.44829C22.0314 8.44829 22.848 7.63165 22.848 6.62429C22.848 5.61692 22.0314 4.80029 21.024 4.80029C20.0166 4.80029 19.2 5.61692 19.2 6.62429C19.2 7.63165 20.0166 8.44829 21.024 8.44829Z" fill="#0092E4"/>
<path opacity="0.2" d="M20.88 8.06419C21.7282 8.06419 22.416 7.3765 22.416 6.52819C22.416 5.67988 21.7282 4.99219 20.88 4.99219C20.0316 4.99219 19.344 5.67988 19.344 6.52819C19.344 7.3765 20.0316 8.06419 20.88 8.06419Z" fill="#0092E4"/>
<path opacity="0.2" d="M20.7358 7.43993C21.3454 7.43993 21.8398 6.94565 21.8398 6.33593C21.8398 5.72621 21.3454 5.23193 20.7358 5.23193C20.1261 5.23193 19.6318 5.72621 19.6318 6.33593C19.6318 6.94565 20.1261 7.43993 20.7358 7.43993Z" fill="#0092E4"/>
<path d="M2.83197 8.88025C3.9984 8.88025 4.94397 7.93468 4.94397 6.76825C4.94397 5.60184 3.9984 4.65625 2.83197 4.65625C1.66555 4.65625 0.719971 5.60184 0.719971 6.76825C0.719971 7.93468 1.66555 8.88025 2.83197 8.88025Z" fill="#0092E4"/>
<path opacity="0.2" d="M2.73587 8.44829C3.74324 8.44829 4.55987 7.63165 4.55987 6.62429C4.55987 5.61692 3.74324 4.80029 2.73587 4.80029C1.7285 4.80029 0.911865 5.61692 0.911865 6.62429C0.911865 7.63165 1.7285 8.44829 2.73587 8.44829Z" fill="#0092E4"/>
<path opacity="0.2" d="M2.59191 8.06419C3.44022 8.06419 4.12791 7.3765 4.12791 6.52819C4.12791 5.67988 3.44022 4.99219 2.59191 4.99219C1.7436 4.99219 1.05591 5.67988 1.05591 6.52819C1.05591 7.3765 1.7436 8.06419 2.59191 8.06419Z" fill="#0092E4"/>
<path opacity="0.2" d="M2.448 7.43993C3.05772 7.43993 3.552 6.94565 3.552 6.33593C3.552 5.72621 3.05772 5.23193 2.448 5.23193C1.83828 5.23193 1.34399 5.72621 1.34399 6.33593C1.34399 6.94565 1.83828 7.43993 2.448 7.43993Z" fill="#0092E4"/>
<path d="M12.0484 7.44007C13.586 7.44007 14.8324 6.19363 14.8324 4.65607C14.8324 3.11851 13.586 1.87207 12.0484 1.87207C10.5108 1.87207 9.2644 3.11851 9.2644 4.65607C9.2644 6.19363 10.5108 7.44007 12.0484 7.44007Z" fill="#0092E4"/>
<path opacity="0.2" d="M11.9045 6.76796C13.2035 6.76796 14.2565 5.71493 14.2565 4.41596C14.2565 3.11698 13.2035 2.06396 11.9045 2.06396C10.6055 2.06396 9.55249 3.11698 9.55249 4.41596C9.55249 5.71493 10.6055 6.76796 11.9045 6.76796Z" fill="#0092E4"/>
<path opacity="0.2" d="M11.712 6.3362C12.8255 6.3362 13.728 5.4336 13.728 4.3202C13.728 3.20679 12.8255 2.3042 11.712 2.3042C10.5986 2.3042 9.69604 3.20679 9.69604 4.3202C9.69604 5.4336 10.5986 6.3362 11.712 6.3362Z" fill="#0092E4"/>
<path opacity="0.2" d="M11.5203 5.51965C12.3156 5.51965 12.9603 4.87493 12.9603 4.07965C12.9603 3.28436 12.3156 2.63965 11.5203 2.63965C10.725 2.63965 10.0803 3.28436 10.0803 4.07965C10.0803 4.87493 10.725 5.51965 11.5203 5.51965Z" fill="#0092E4"/>
<path opacity="0.2" d="M11.712 21.9363C12.8254 21.9363 13.728 21.528 13.728 21.0243C13.728 20.5206 12.8254 20.1123 11.712 20.1123C10.5986 20.1123 9.69604 20.5206 9.69604 21.0243C9.69604 21.528 10.5986 21.9363 11.712 21.9363Z" fill="#0092E4"/>
<path opacity="0.2" d="M11.712 21.7916C12.5603 21.7916 13.248 21.5336 13.248 21.2156C13.248 20.8975 12.5603 20.6396 11.712 20.6396C10.8637 20.6396 10.176 20.8975 10.176 21.2156C10.176 21.5336 10.8637 21.7916 11.712 21.7916Z" fill="#0092E4"/>
</svg>
